<mxfile host="app.diagrams.net" modified="2023-08-04T10:02:32.452Z" agent="Mozilla/5.0 (Windows NT 10.0; Win64; x64) AppleWebKit/537.36 (KHTML, like Gecko) Chrome/115.0.0.0 Safari/537.36" etag="SHjY1WwH5Y9mXgUy7RjJ" version="21.6.6" type="google">
  <diagram name="Page-1" id="Qzn1dw9HE1A1PYmnU8dQ">
    <mxGraphModel grid="1" page="1" gridSize="10" guides="1" tooltips="1" connect="1" arrows="1" fold="1" pageScale="1" pageWidth="850" pageHeight="1100" math="0" shadow="0">
      <root>
        <mxCell id="0" />
        <mxCell id="1" parent="0" />
        <mxCell id="IEjlk21TAKcfXeK77vQE-1" value="Customers" style="sketch=0;outlineConnect=0;fontColor=#232F3E;gradientColor=none;fillColor=#232F3D;strokeColor=none;dashed=0;verticalLabelPosition=bottom;verticalAlign=top;align=center;html=1;fontSize=18;fontStyle=1;aspect=fixed;pointerEvents=1;shape=mxgraph.aws4.users;points=[[0,0.25,0,0,0],[0,0.75,0,0,0],[0.25,0,0,0,0],[0.25,1,0,0,0],[0.75,0,0,0,0],[0.75,1,0,0,0],[1,0.25,0,0,0],[1,0.75,0,0,0]];fontFamily=calibri;" vertex="1" parent="1">
          <mxGeometry x="240" y="360" width="80" height="80" as="geometry" />
        </mxCell>
        <mxCell id="IEjlk21TAKcfXeK77vQE-2" value="Amazon Cognito&lt;br style=&quot;font-size: 18px;&quot;&gt;Hosted UI" style="sketch=0;points=[[0,0,0],[0.25,0,0],[0.5,0,0],[0.75,0,0],[1,0,0],[0,1,0],[0.25,1,0],[0.5,1,0],[0.75,1,0],[1,1,0],[0,0.25,0],[0,0.5,0],[0,0.75,0],[1,0.25,0],[1,0.5,0],[1,0.75,0]];outlineConnect=0;fontColor=#232F3E;gradientColor=#F54749;gradientDirection=north;fillColor=#C7131F;strokeColor=#ffffff;dashed=0;verticalLabelPosition=bottom;verticalAlign=top;align=center;html=1;fontSize=18;fontStyle=1;aspect=fixed;shape=mxgraph.aws4.resourceIcon;resIcon=mxgraph.aws4.cognito;fontFamily=calibri;" vertex="1" parent="1">
          <mxGeometry x="240" y="70" width="80" height="80" as="geometry" />
        </mxCell>
        <mxCell id="IEjlk21TAKcfXeK77vQE-3" value="Route 53" style="sketch=0;points=[[0,0,0],[0.25,0,0],[0.5,0,0],[0.75,0,0],[1,0,0],[0,1,0],[0.25,1,0],[0.5,1,0],[0.75,1,0],[1,1,0],[0,0.25,0],[0,0.5,0],[0,0.75,0],[1,0.25,0],[1,0.5,0],[1,0.75,0]];outlineConnect=0;fontColor=#232F3E;gradientColor=#945DF2;gradientDirection=north;fillColor=#5A30B5;strokeColor=#ffffff;dashed=0;verticalLabelPosition=bottom;verticalAlign=top;align=center;html=1;fontSize=18;fontStyle=1;aspect=fixed;shape=mxgraph.aws4.resourceIcon;resIcon=mxgraph.aws4.route_53;fontFamily=calibri;" vertex="1" parent="1">
          <mxGeometry x="440" y="360" width="80" height="80" as="geometry" />
        </mxCell>
        <mxCell id="IEjlk21TAKcfXeK77vQE-4" value="API Gateway" style="sketch=0;points=[[0,0,0],[0.25,0,0],[0.5,0,0],[0.75,0,0],[1,0,0],[0,1,0],[0.25,1,0],[0.5,1,0],[0.75,1,0],[1,1,0],[0,0.25,0],[0,0.5,0],[0,0.75,0],[1,0.25,0],[1,0.5,0],[1,0.75,0]];outlineConnect=0;fontColor=#232F3E;gradientColor=#945DF2;gradientDirection=north;fillColor=#5A30B5;strokeColor=#ffffff;dashed=0;verticalLabelPosition=bottom;verticalAlign=top;align=center;html=1;fontSize=18;fontStyle=1;aspect=fixed;shape=mxgraph.aws4.resourceIcon;resIcon=mxgraph.aws4.api_gateway;fontFamily=calibri;" vertex="1" parent="1">
          <mxGeometry x="640" y="360" width="80" height="80" as="geometry" />
        </mxCell>
        <mxCell id="IEjlk21TAKcfXeK77vQE-5" value="Lambda&lt;br&gt;(postVideo)" style="sketch=0;points=[[0,0,0],[0.25,0,0],[0.5,0,0],[0.75,0,0],[1,0,0],[0,1,0],[0.25,1,0],[0.5,1,0],[0.75,1,0],[1,1,0],[0,0.25,0],[0,0.5,0],[0,0.75,0],[1,0.25,0],[1,0.5,0],[1,0.75,0]];outlineConnect=0;fontColor=#232F3E;gradientColor=#F78E04;gradientDirection=north;fillColor=#D05C17;strokeColor=#ffffff;dashed=0;verticalLabelPosition=bottom;verticalAlign=top;align=center;html=1;fontSize=18;fontStyle=1;aspect=fixed;shape=mxgraph.aws4.resourceIcon;resIcon=mxgraph.aws4.lambda;fontFamily=calibri;" vertex="1" parent="1">
          <mxGeometry x="880" y="360" width="80" height="80" as="geometry" />
        </mxCell>
        <mxCell id="IEjlk21TAKcfXeK77vQE-6" value="DynamoDB" style="sketch=0;points=[[0,0,0],[0.25,0,0],[0.5,0,0],[0.75,0,0],[1,0,0],[0,1,0],[0.25,1,0],[0.5,1,0],[0.75,1,0],[1,1,0],[0,0.25,0],[0,0.5,0],[0,0.75,0],[1,0.25,0],[1,0.5,0],[1,0.75,0]];outlineConnect=0;fontColor=#232F3E;gradientColor=#4D72F3;gradientDirection=north;fillColor=#3334B9;strokeColor=#ffffff;dashed=0;verticalLabelPosition=bottom;verticalAlign=top;align=center;html=1;fontSize=18;fontStyle=1;aspect=fixed;shape=mxgraph.aws4.resourceIcon;resIcon=mxgraph.aws4.dynamodb;fontFamily=calibri;" vertex="1" parent="1">
          <mxGeometry x="1000" y="200" width="80" height="80" as="geometry" />
        </mxCell>
        <mxCell id="IEjlk21TAKcfXeK77vQE-7" value="S3" style="sketch=0;points=[[0,0,0],[0.25,0,0],[0.5,0,0],[0.75,0,0],[1,0,0],[0,1,0],[0.25,1,0],[0.5,1,0],[0.75,1,0],[1,1,0],[0,0.25,0],[0,0.5,0],[0,0.75,0],[1,0.25,0],[1,0.5,0],[1,0.75,0]];outlineConnect=0;fontColor=#232F3E;gradientColor=#60A337;gradientDirection=north;fillColor=#277116;strokeColor=#ffffff;dashed=0;verticalLabelPosition=bottom;verticalAlign=top;align=center;html=1;fontSize=18;fontStyle=1;aspect=fixed;shape=mxgraph.aws4.resourceIcon;resIcon=mxgraph.aws4.s3;fontFamily=calibri;" vertex="1" parent="1">
          <mxGeometry x="1000" y="555" width="80" height="80" as="geometry" />
        </mxCell>
        <mxCell id="IEjlk21TAKcfXeK77vQE-8" value="Amazon Cognito&lt;br style=&quot;font-size: 18px;&quot;&gt;User Pool Authorizer" style="sketch=0;points=[[0,0,0],[0.25,0,0],[0.5,0,0],[0.75,0,0],[1,0,0],[0,1,0],[0.25,1,0],[0.5,1,0],[0.75,1,0],[1,1,0],[0,0.25,0],[0,0.5,0],[0,0.75,0],[1,0.25,0],[1,0.5,0],[1,0.75,0]];outlineConnect=0;fontColor=#232F3E;gradientColor=#F54749;gradientDirection=north;fillColor=#C7131F;strokeColor=#ffffff;dashed=0;verticalLabelPosition=bottom;verticalAlign=top;align=center;html=1;fontSize=18;fontStyle=1;aspect=fixed;shape=mxgraph.aws4.resourceIcon;resIcon=mxgraph.aws4.cognito;fontFamily=calibri;" vertex="1" parent="1">
          <mxGeometry x="640" y="70" width="80" height="80" as="geometry" />
        </mxCell>
        <mxCell id="IEjlk21TAKcfXeK77vQE-9" value="Lambda (submitJob)" style="sketch=0;points=[[0,0,0],[0.25,0,0],[0.5,0,0],[0.75,0,0],[1,0,0],[0,1,0],[0.25,1,0],[0.5,1,0],[0.75,1,0],[1,1,0],[0,0.25,0],[0,0.5,0],[0,0.75,0],[1,0.25,0],[1,0.5,0],[1,0.75,0]];outlineConnect=0;fontColor=#232F3E;gradientColor=#F78E04;gradientDirection=north;fillColor=#D05C17;strokeColor=#ffffff;dashed=0;verticalLabelPosition=bottom;verticalAlign=top;align=center;html=1;fontSize=18;fontStyle=1;aspect=fixed;shape=mxgraph.aws4.resourceIcon;resIcon=mxgraph.aws4.lambda;fontFamily=calibri;" vertex="1" parent="1">
          <mxGeometry x="1600" y="555" width="80" height="80" as="geometry" />
        </mxCell>
        <mxCell id="IEjlk21TAKcfXeK77vQE-11" value="" style="edgeStyle=orthogonalEdgeStyle;html=1;endArrow=block;elbow=vertical;startArrow=none;endFill=1;strokeColor=#545B64;rounded=0;entryX=0.25;entryY=1;entryDx=0;entryDy=0;entryPerimeter=0;exitX=0.25;exitY=0;exitDx=0;exitDy=0;exitPerimeter=0;fontFamily=calibri;fontStyle=1;fontSize=18;" edge="1" parent="1" source="IEjlk21TAKcfXeK77vQE-1" target="IEjlk21TAKcfXeK77vQE-2">
          <mxGeometry width="100" relative="1" as="geometry">
            <mxPoint x="350" y="330" as="sourcePoint" />
            <mxPoint x="450" y="330" as="targetPoint" />
          </mxGeometry>
        </mxCell>
        <mxCell id="IEjlk21TAKcfXeK77vQE-12" value="" style="edgeStyle=orthogonalEdgeStyle;html=1;endArrow=block;elbow=vertical;startArrow=none;endFill=1;strokeColor=#545B64;rounded=0;exitX=0.75;exitY=1;exitDx=0;exitDy=0;exitPerimeter=0;entryX=0.75;entryY=0;entryDx=0;entryDy=0;entryPerimeter=0;fontFamily=calibri;fontStyle=1;fontSize=18;" edge="1" parent="1" source="IEjlk21TAKcfXeK77vQE-2" target="IEjlk21TAKcfXeK77vQE-1">
          <mxGeometry width="100" relative="1" as="geometry">
            <mxPoint x="350" y="330" as="sourcePoint" />
            <mxPoint x="450" y="330" as="targetPoint" />
          </mxGeometry>
        </mxCell>
        <mxCell id="IEjlk21TAKcfXeK77vQE-13" value="" style="edgeStyle=orthogonalEdgeStyle;html=1;endArrow=block;elbow=vertical;startArrow=none;endFill=1;strokeColor=#545B64;rounded=0;exitX=0.25;exitY=0;exitDx=0;exitDy=0;exitPerimeter=0;entryX=0.25;entryY=1;entryDx=0;entryDy=0;entryPerimeter=0;fontFamily=calibri;fontStyle=1;fontSize=18;" edge="1" parent="1" source="IEjlk21TAKcfXeK77vQE-4" target="IEjlk21TAKcfXeK77vQE-8">
          <mxGeometry width="100" relative="1" as="geometry">
            <mxPoint x="690" y="300" as="sourcePoint" />
            <mxPoint x="790" y="300" as="targetPoint" />
          </mxGeometry>
        </mxCell>
        <mxCell id="IEjlk21TAKcfXeK77vQE-14" value="" style="edgeStyle=orthogonalEdgeStyle;html=1;endArrow=block;elbow=vertical;startArrow=none;endFill=1;strokeColor=#545B64;rounded=0;exitX=0.75;exitY=1;exitDx=0;exitDy=0;exitPerimeter=0;entryX=0.75;entryY=0;entryDx=0;entryDy=0;entryPerimeter=0;fontFamily=calibri;fontStyle=1;fontSize=18;" edge="1" parent="1" source="IEjlk21TAKcfXeK77vQE-8" target="IEjlk21TAKcfXeK77vQE-4">
          <mxGeometry width="100" relative="1" as="geometry">
            <mxPoint x="690" y="300" as="sourcePoint" />
            <mxPoint x="790" y="300" as="targetPoint" />
          </mxGeometry>
        </mxCell>
        <mxCell id="IEjlk21TAKcfXeK77vQE-15" value="" style="edgeStyle=orthogonalEdgeStyle;html=1;endArrow=block;elbow=vertical;startArrow=none;endFill=1;strokeColor=#545B64;rounded=0;exitX=0.5;exitY=1;exitDx=0;exitDy=0;exitPerimeter=0;entryX=0;entryY=0.5;entryDx=0;entryDy=0;entryPerimeter=0;fontFamily=calibri;fontStyle=1;fontSize=18;" edge="1" parent="1" source="IEjlk21TAKcfXeK77vQE-5" target="IEjlk21TAKcfXeK77vQE-7">
          <mxGeometry width="100" relative="1" as="geometry">
            <mxPoint x="890" y="490" as="sourcePoint" />
            <mxPoint x="990" y="490" as="targetPoint" />
          </mxGeometry>
        </mxCell>
        <mxCell id="IEjlk21TAKcfXeK77vQE-16" value="" style="edgeStyle=orthogonalEdgeStyle;html=1;endArrow=block;elbow=vertical;startArrow=none;endFill=1;strokeColor=#545B64;rounded=0;entryX=0.75;entryY=1;entryDx=0;entryDy=0;entryPerimeter=0;exitX=0;exitY=0.25;exitDx=0;exitDy=0;exitPerimeter=0;fontFamily=calibri;fontStyle=1;fontSize=18;" edge="1" parent="1" source="IEjlk21TAKcfXeK77vQE-7" target="IEjlk21TAKcfXeK77vQE-5">
          <mxGeometry width="100" relative="1" as="geometry">
            <mxPoint x="890" y="490" as="sourcePoint" />
            <mxPoint x="990" y="490" as="targetPoint" />
          </mxGeometry>
        </mxCell>
        <mxCell id="IEjlk21TAKcfXeK77vQE-17" value="" style="edgeStyle=orthogonalEdgeStyle;html=1;endArrow=block;elbow=vertical;startArrow=none;endFill=1;strokeColor=#545B64;rounded=0;exitX=0.5;exitY=0;exitDx=0;exitDy=0;exitPerimeter=0;entryX=0;entryY=0.5;entryDx=0;entryDy=0;entryPerimeter=0;fontFamily=calibri;fontStyle=1;fontSize=18;" edge="1" parent="1" source="IEjlk21TAKcfXeK77vQE-5" target="IEjlk21TAKcfXeK77vQE-6">
          <mxGeometry width="100" relative="1" as="geometry">
            <mxPoint x="980" y="320" as="sourcePoint" />
            <mxPoint x="1080" y="320" as="targetPoint" />
          </mxGeometry>
        </mxCell>
        <mxCell id="IEjlk21TAKcfXeK77vQE-18" value="" style="edgeStyle=orthogonalEdgeStyle;html=1;endArrow=block;elbow=vertical;startArrow=none;endFill=1;strokeColor=#545B64;rounded=0;exitX=1;exitY=0.5;exitDx=0;exitDy=0;exitPerimeter=0;fontFamily=calibri;fontStyle=1;entryX=0;entryY=0.5;entryDx=0;entryDy=0;entryPerimeter=0;fontSize=18;" edge="1" parent="1" source="IEjlk21TAKcfXeK77vQE-7" target="pK2lVTJmEqcKdOLYfoWb-1">
          <mxGeometry width="100" relative="1" as="geometry">
            <mxPoint x="1090" y="559.9" as="sourcePoint" />
            <mxPoint x="1200" y="560" as="targetPoint" />
          </mxGeometry>
        </mxCell>
        <mxCell id="IEjlk21TAKcfXeK77vQE-19" value="" style="edgeStyle=orthogonalEdgeStyle;html=1;endArrow=block;elbow=vertical;startArrow=none;endFill=1;strokeColor=#545B64;rounded=0;exitX=1;exitY=0.5;exitDx=0;exitDy=0;exitPerimeter=0;fontFamily=calibri;fontStyle=1;fontSize=18;" edge="1" parent="1" source="IEjlk21TAKcfXeK77vQE-9" target="IEjlk21TAKcfXeK77vQE-43">
          <mxGeometry width="100" relative="1" as="geometry">
            <mxPoint x="1720" y="500" as="sourcePoint" />
            <mxPoint x="1820" y="500" as="targetPoint" />
          </mxGeometry>
        </mxCell>
        <mxCell id="IEjlk21TAKcfXeK77vQE-20" value="" style="edgeStyle=orthogonalEdgeStyle;html=1;endArrow=block;elbow=vertical;startArrow=none;endFill=1;strokeColor=#545B64;rounded=0;exitX=1;exitY=0.25;exitDx=0;exitDy=0;exitPerimeter=0;entryX=0;entryY=0.25;entryDx=0;entryDy=0;entryPerimeter=0;fontFamily=calibri;fontStyle=1;fontSize=18;" edge="1" parent="1" source="IEjlk21TAKcfXeK77vQE-4" target="IEjlk21TAKcfXeK77vQE-5">
          <mxGeometry width="100" relative="1" as="geometry">
            <mxPoint x="730" y="380" as="sourcePoint" />
            <mxPoint x="830" y="380" as="targetPoint" />
          </mxGeometry>
        </mxCell>
        <mxCell id="IEjlk21TAKcfXeK77vQE-21" value="" style="edgeStyle=orthogonalEdgeStyle;html=1;endArrow=none;elbow=vertical;startArrow=block;startFill=1;strokeColor=#545B64;rounded=0;exitX=1;exitY=0.75;exitDx=0;exitDy=0;exitPerimeter=0;entryX=0;entryY=0.75;entryDx=0;entryDy=0;entryPerimeter=0;fontFamily=calibri;fontStyle=1;fontSize=18;" edge="1" parent="1" source="IEjlk21TAKcfXeK77vQE-4" target="IEjlk21TAKcfXeK77vQE-5">
          <mxGeometry width="100" relative="1" as="geometry">
            <mxPoint x="770" y="420" as="sourcePoint" />
            <mxPoint x="820" y="440" as="targetPoint" />
          </mxGeometry>
        </mxCell>
        <mxCell id="IEjlk21TAKcfXeK77vQE-22" value="" style="edgeStyle=orthogonalEdgeStyle;html=1;endArrow=block;elbow=vertical;startArrow=none;endFill=1;strokeColor=#545B64;rounded=0;entryX=0;entryY=0.75;entryDx=0;entryDy=0;entryPerimeter=0;exitX=0.496;exitY=0.996;exitDx=0;exitDy=0;exitPerimeter=0;fontFamily=calibri;fontStyle=1;fontSize=18;" edge="1" parent="1" source="IEjlk21TAKcfXeK77vQE-1" target="IEjlk21TAKcfXeK77vQE-7">
          <mxGeometry width="100" relative="1" as="geometry">
            <mxPoint x="280" y="470" as="sourcePoint" />
            <mxPoint x="850" y="490" as="targetPoint" />
          </mxGeometry>
        </mxCell>
        <mxCell id="IEjlk21TAKcfXeK77vQE-23" value="" style="edgeStyle=orthogonalEdgeStyle;html=1;endArrow=block;elbow=vertical;startArrow=none;endFill=1;strokeColor=#545B64;rounded=0;exitX=1;exitY=0.25;exitDx=0;exitDy=0;exitPerimeter=0;entryX=0;entryY=0.25;entryDx=0;entryDy=0;entryPerimeter=0;fontFamily=calibri;fontStyle=1;fontSize=18;" edge="1" parent="1" source="IEjlk21TAKcfXeK77vQE-1" target="IEjlk21TAKcfXeK77vQE-3">
          <mxGeometry width="100" relative="1" as="geometry">
            <mxPoint x="440" y="390" as="sourcePoint" />
            <mxPoint x="540" y="390" as="targetPoint" />
          </mxGeometry>
        </mxCell>
        <mxCell id="IEjlk21TAKcfXeK77vQE-24" value="" style="edgeStyle=orthogonalEdgeStyle;html=1;endArrow=none;elbow=vertical;startArrow=block;startFill=1;strokeColor=#545B64;rounded=0;exitX=1;exitY=0.75;exitDx=0;exitDy=0;exitPerimeter=0;entryX=0;entryY=0.75;entryDx=0;entryDy=0;entryPerimeter=0;fontFamily=calibri;fontStyle=1;fontSize=18;" edge="1" parent="1" source="IEjlk21TAKcfXeK77vQE-1" target="IEjlk21TAKcfXeK77vQE-3">
          <mxGeometry width="100" relative="1" as="geometry">
            <mxPoint x="440" y="390" as="sourcePoint" />
            <mxPoint x="540" y="390" as="targetPoint" />
          </mxGeometry>
        </mxCell>
        <mxCell id="IEjlk21TAKcfXeK77vQE-25" value="" style="edgeStyle=orthogonalEdgeStyle;html=1;endArrow=block;elbow=vertical;startArrow=none;endFill=1;strokeColor=#545B64;rounded=0;exitX=1;exitY=0.25;exitDx=0;exitDy=0;exitPerimeter=0;entryX=0;entryY=0.25;entryDx=0;entryDy=0;entryPerimeter=0;fontFamily=calibri;fontStyle=1;fontSize=18;" edge="1" parent="1" source="IEjlk21TAKcfXeK77vQE-3" target="IEjlk21TAKcfXeK77vQE-4">
          <mxGeometry width="100" relative="1" as="geometry">
            <mxPoint x="560" y="410" as="sourcePoint" />
            <mxPoint x="640" y="380" as="targetPoint" />
          </mxGeometry>
        </mxCell>
        <mxCell id="IEjlk21TAKcfXeK77vQE-26" value="" style="edgeStyle=orthogonalEdgeStyle;html=1;endArrow=none;elbow=vertical;startArrow=block;startFill=1;strokeColor=#545B64;rounded=0;exitX=1;exitY=0.75;exitDx=0;exitDy=0;exitPerimeter=0;entryX=0;entryY=0.75;entryDx=0;entryDy=0;entryPerimeter=0;fontFamily=calibri;fontStyle=1;fontSize=18;" edge="1" parent="1" source="IEjlk21TAKcfXeK77vQE-3" target="IEjlk21TAKcfXeK77vQE-4">
          <mxGeometry width="100" relative="1" as="geometry">
            <mxPoint x="560" y="410" as="sourcePoint" />
            <mxPoint x="640" y="420" as="targetPoint" />
          </mxGeometry>
        </mxCell>
        <mxCell id="IEjlk21TAKcfXeK77vQE-27" value="1. Signs in with Cognito." style="text;html=1;strokeColor=none;fillColor=none;align=center;verticalAlign=middle;whiteSpace=wrap;rounded=0;fontFamily=calibri;fontStyle=1;fontSize=18;" vertex="1" parent="1">
          <mxGeometry x="150" y="230" width="110" height="30" as="geometry" />
        </mxCell>
        <mxCell id="IEjlk21TAKcfXeK77vQE-28" value="2. Returns a token (JWT)" style="text;html=1;strokeColor=none;fillColor=none;align=center;verticalAlign=middle;whiteSpace=wrap;rounded=0;fontFamily=calibri;fontStyle=1;fontSize=18;" vertex="1" parent="1">
          <mxGeometry x="310" y="230" width="100" height="30" as="geometry" />
        </mxCell>
        <mxCell id="IEjlk21TAKcfXeK77vQE-29" value="3. Sends a POST /videos request." style="text;html=1;strokeColor=none;fillColor=none;align=center;verticalAlign=middle;whiteSpace=wrap;rounded=0;fontFamily=calibri;fontStyle=1;fontSize=18;" vertex="1" parent="1">
          <mxGeometry x="320" y="330" width="120" height="30" as="geometry" />
        </mxCell>
        <mxCell id="IEjlk21TAKcfXeK77vQE-30" value="4. Routes the request to API Gateway." style="text;html=1;strokeColor=none;fillColor=none;align=center;verticalAlign=middle;whiteSpace=wrap;rounded=0;fontFamily=calibri;fontStyle=1;fontSize=18;" vertex="1" parent="1">
          <mxGeometry x="520" y="330" width="120" height="30" as="geometry" />
        </mxCell>
        <mxCell id="IEjlk21TAKcfXeK77vQE-31" value="5. Verifies the JWT token sent in the request." style="text;html=1;strokeColor=none;fillColor=none;align=center;verticalAlign=middle;whiteSpace=wrap;rounded=0;fontFamily=calibri;fontStyle=1;fontSize=18;" vertex="1" parent="1">
          <mxGeometry x="500" y="230" width="160" height="30" as="geometry" />
        </mxCell>
        <mxCell id="IEjlk21TAKcfXeK77vQE-32" value="6. If the token is missing/invalid, the request is denied." style="text;html=1;strokeColor=none;fillColor=none;align=center;verticalAlign=middle;whiteSpace=wrap;rounded=0;fontFamily=calibri;fontStyle=1;fontSize=18;" vertex="1" parent="1">
          <mxGeometry x="710" y="240" width="130" height="30" as="geometry" />
        </mxCell>
        <mxCell id="IEjlk21TAKcfXeK77vQE-33" value="7. Triggers the postVideo function." style="text;html=1;strokeColor=none;fillColor=none;align=center;verticalAlign=middle;whiteSpace=wrap;rounded=0;fontFamily=calibri;fontStyle=1;fontSize=18;" vertex="1" parent="1">
          <mxGeometry x="740" y="330" width="110" height="30" as="geometry" />
        </mxCell>
        <mxCell id="IEjlk21TAKcfXeK77vQE-34" value="8. Requests a presigned URL to upload the video to S3." style="text;html=1;strokeColor=none;fillColor=none;align=center;verticalAlign=middle;whiteSpace=wrap;rounded=0;fontFamily=calibri;fontStyle=1;fontSize=18;" vertex="1" parent="1">
          <mxGeometry x="770" y="530" width="140" height="40" as="geometry" />
        </mxCell>
        <mxCell id="IEjlk21TAKcfXeK77vQE-35" value="9. Returns the URL." style="text;html=1;strokeColor=none;fillColor=none;align=center;verticalAlign=middle;whiteSpace=wrap;rounded=0;fontFamily=calibri;fontStyle=1;fontSize=18;" vertex="1" parent="1">
          <mxGeometry x="940" y="515" width="100" height="30" as="geometry" />
        </mxCell>
        <mxCell id="IEjlk21TAKcfXeK77vQE-36" value="10. The video metadata, along with the user&#39;s username is added to DynamoDB." style="text;html=1;strokeColor=none;fillColor=none;align=center;verticalAlign=middle;whiteSpace=wrap;rounded=0;fontFamily=calibri;fontStyle=1;fontSize=18;" vertex="1" parent="1">
          <mxGeometry x="850" y="160" width="160" height="30" as="geometry" />
        </mxCell>
        <mxCell id="IEjlk21TAKcfXeK77vQE-37" value="11. The URL is returned to the customer." style="text;html=1;strokeColor=none;fillColor=none;align=center;verticalAlign=middle;whiteSpace=wrap;rounded=0;fontFamily=calibri;fontStyle=1;fontSize=18;" vertex="1" parent="1">
          <mxGeometry x="740" y="440" width="120" height="30" as="geometry" />
        </mxCell>
        <mxCell id="IEjlk21TAKcfXeK77vQE-38" value="12. Uploads the source video using the presigned URL." style="text;html=1;strokeColor=none;fillColor=none;align=center;verticalAlign=middle;whiteSpace=wrap;rounded=0;fontFamily=calibri;fontStyle=1;fontSize=18;" vertex="1" parent="1">
          <mxGeometry x="420" y="580" width="285" height="30" as="geometry" />
        </mxCell>
        <mxCell id="IEjlk21TAKcfXeK77vQE-39" value="14. An SQS queue subscribes to the SNS topic to get messages." style="text;html=1;strokeColor=none;fillColor=none;align=center;verticalAlign=middle;whiteSpace=wrap;rounded=0;fontFamily=calibri;fontStyle=1;fontSize=18;" vertex="1" parent="1">
          <mxGeometry x="1275" y="515" width="130" height="30" as="geometry" />
        </mxCell>
        <mxCell id="IEjlk21TAKcfXeK77vQE-40" value="16. Creates a job to encode the video specified in the queue message." style="text;html=1;strokeColor=none;fillColor=none;align=center;verticalAlign=middle;whiteSpace=wrap;rounded=0;fontFamily=calibri;fontStyle=1;fontSize=18;" vertex="1" parent="1">
          <mxGeometry x="1670" y="515" width="130" height="30" as="geometry" />
        </mxCell>
        <mxCell id="IEjlk21TAKcfXeK77vQE-43" value="Elemental MediaConvert" style="sketch=0;points=[[0,0,0],[0.25,0,0],[0.5,0,0],[0.75,0,0],[1,0,0],[0,1,0],[0.25,1,0],[0.5,1,0],[0.75,1,0],[1,1,0],[0,0.25,0],[0,0.5,0],[0,0.75,0],[1,0.25,0],[1,0.5,0],[1,0.75,0]];outlineConnect=0;fontColor=#232F3E;gradientColor=#F78E04;gradientDirection=north;fillColor=#D05C17;strokeColor=#ffffff;dashed=0;verticalLabelPosition=bottom;verticalAlign=top;align=center;html=1;fontSize=18;fontStyle=1;aspect=fixed;shape=mxgraph.aws4.resourceIcon;resIcon=mxgraph.aws4.elemental_mediaconvert;fontFamily=calibri;" vertex="1" parent="1">
          <mxGeometry x="1800" y="555" width="80" height="80" as="geometry" />
        </mxCell>
        <mxCell id="IEjlk21TAKcfXeK77vQE-44" value="" style="edgeStyle=orthogonalEdgeStyle;html=1;endArrow=block;elbow=vertical;startArrow=none;endFill=1;strokeColor=#545B64;rounded=0;fontFamily=calibri;fontStyle=1;exitX=1;exitY=0.5;exitDx=0;exitDy=0;exitPerimeter=0;entryX=0.5;entryY=1;entryDx=0;entryDy=0;entryPerimeter=0;fontSize=18;" edge="1" parent="1" source="IEjlk21TAKcfXeK77vQE-43" target="IEjlk21TAKcfXeK77vQE-7">
          <mxGeometry width="100" relative="1" as="geometry">
            <mxPoint x="1700" y="640.26" as="sourcePoint" />
            <mxPoint x="1800" y="560" as="targetPoint" />
            <Array as="points">
              <mxPoint x="1940" y="595" />
              <mxPoint x="1940" y="680" />
              <mxPoint x="1040" y="680" />
            </Array>
          </mxGeometry>
        </mxCell>
        <mxCell id="IEjlk21TAKcfXeK77vQE-45" value="17. Uploads the output to S3." style="text;html=1;strokeColor=none;fillColor=none;align=center;verticalAlign=middle;whiteSpace=wrap;rounded=0;fontFamily=calibri;fontStyle=1;fontSize=18;" vertex="1" parent="1">
          <mxGeometry x="1880" y="535" width="90" height="30" as="geometry" />
        </mxCell>
        <mxCell id="mOTxmtIR1pEWfqdxsE9D-3" value="SQS" style="sketch=0;points=[[0,0,0],[0.25,0,0],[0.5,0,0],[0.75,0,0],[1,0,0],[0,1,0],[0.25,1,0],[0.5,1,0],[0.75,1,0],[1,1,0],[0,0.25,0],[0,0.5,0],[0,0.75,0],[1,0.25,0],[1,0.5,0],[1,0.75,0]];outlineConnect=0;fontColor=#232F3E;gradientColor=#FF4F8B;gradientDirection=north;fillColor=#BC1356;strokeColor=#ffffff;dashed=0;verticalLabelPosition=bottom;verticalAlign=top;align=center;html=1;fontSize=18;fontStyle=1;aspect=fixed;shape=mxgraph.aws4.resourceIcon;resIcon=mxgraph.aws4.sqs;fontFamily=calibri;" vertex="1" parent="1">
          <mxGeometry x="1400" y="555" width="80" height="80" as="geometry" />
        </mxCell>
        <mxCell id="mOTxmtIR1pEWfqdxsE9D-4" value="" style="edgeStyle=orthogonalEdgeStyle;html=1;endArrow=block;elbow=vertical;startArrow=none;endFill=1;strokeColor=#545B64;rounded=0;exitX=1;exitY=0.5;exitDx=0;exitDy=0;exitPerimeter=0;entryX=0;entryY=0.5;entryDx=0;entryDy=0;entryPerimeter=0;fontFamily=calibri;fontStyle=1;fontSize=18;" edge="1" parent="1" source="mOTxmtIR1pEWfqdxsE9D-3" target="IEjlk21TAKcfXeK77vQE-9">
          <mxGeometry width="100" relative="1" as="geometry">
            <mxPoint x="1540" y="530" as="sourcePoint" />
            <mxPoint x="1640" y="530" as="targetPoint" />
          </mxGeometry>
        </mxCell>
        <mxCell id="mOTxmtIR1pEWfqdxsE9D-5" value="15. Lambda polls a message from the queue and processes it." style="text;html=1;strokeColor=none;fillColor=none;align=center;verticalAlign=middle;whiteSpace=wrap;rounded=0;fontFamily=calibri;fontStyle=1;fontSize=18;" vertex="1" parent="1">
          <mxGeometry x="1480" y="515" width="120" height="30" as="geometry" />
        </mxCell>
        <mxCell id="pK2lVTJmEqcKdOLYfoWb-1" value="SNS" style="sketch=0;points=[[0,0,0],[0.25,0,0],[0.5,0,0],[0.75,0,0],[1,0,0],[0,1,0],[0.25,1,0],[0.5,1,0],[0.75,1,0],[1,1,0],[0,0.25,0],[0,0.5,0],[0,0.75,0],[1,0.25,0],[1,0.5,0],[1,0.75,0]];outlineConnect=0;fontColor=#232F3E;gradientColor=#FF4F8B;gradientDirection=north;fillColor=#BC1356;strokeColor=#ffffff;dashed=0;verticalLabelPosition=bottom;verticalAlign=top;align=center;html=1;fontSize=18;fontStyle=1;aspect=fixed;shape=mxgraph.aws4.resourceIcon;resIcon=mxgraph.aws4.sns;fontFamily=calibri;" vertex="1" parent="1">
          <mxGeometry x="1200" y="555" width="80" height="80" as="geometry" />
        </mxCell>
        <mxCell id="pK2lVTJmEqcKdOLYfoWb-2" value="" style="edgeStyle=orthogonalEdgeStyle;html=1;endArrow=block;elbow=vertical;startArrow=none;endFill=1;strokeColor=#545B64;rounded=0;entryX=0;entryY=0.495;entryDx=0;entryDy=0;entryPerimeter=0;exitX=1;exitY=0.5;exitDx=0;exitDy=0;exitPerimeter=0;" edge="1" parent="1" source="pK2lVTJmEqcKdOLYfoWb-1" target="mOTxmtIR1pEWfqdxsE9D-3">
          <mxGeometry width="100" relative="1" as="geometry">
            <mxPoint x="1290" y="594.58" as="sourcePoint" />
            <mxPoint x="1390" y="594.58" as="targetPoint" />
          </mxGeometry>
        </mxCell>
        <mxCell id="pK2lVTJmEqcKdOLYfoWb-3" value="13. Notifies SNS when the source video is uploaded." style="text;html=1;strokeColor=none;fillColor=none;align=center;verticalAlign=middle;whiteSpace=wrap;rounded=0;fontFamily=calibri;fontStyle=1;fontSize=18;" vertex="1" parent="1">
          <mxGeometry x="1080" y="530" width="110" height="30" as="geometry" />
        </mxCell>
      </root>
    </mxGraphModel>
  </diagram>
</mxfile>
